<?xml version="1.0" encoding="UTF-8" standalone="no"?>
<!DOCTYPE svg PUBLIC "-//W3C//DTD SVG 1.1//EN"
 "http://www.w3.org/Graphics/SVG/1.1/DTD/svg11.dtd">
<!-- Generated by Graphviz version 2.21.20090211.0545 (20090211.0545)
     For user: Gionata -->
<!-- Title: G Pages: 1 -->
<svg width="80pt" height="260pt"
 viewBox="0.00 0.00 80.00 260.00" xmlns="http://www.w3.org/2000/svg" xmlns:xlink="http://www.w3.org/1999/xlink">
<g id="graph1" class="graph" transform="scale(1 1) rotate(0) translate(4 256)">
<title>G</title>
<polygon fill="white" stroke="white" points="-4,5 -4,-256 77,-256 77,5 -4,5"/>
<!-- 0 -->
<g id="node1" class="node"><title>0</title>
<ellipse fill="none" stroke="black" cx="36" cy="-234" rx="29.0158" ry="18"/>
<text text-anchor="middle" x="36" y="-230.1" font-family="Times New Roman,serif" font-size="14.00">1,2,3</text>
</g>
<!-- 1 -->
<g id="node2" class="node"><title>1</title>
<ellipse fill="none" stroke="black" cx="36" cy="-162" rx="36.2243" ry="18"/>
<text text-anchor="middle" x="36" y="-158.1" font-family="Times New Roman,serif" font-size="14.00">2,3,4,5</text>
</g>
<!-- 0&#45;&#45;1 -->
<g id="edge2" class="edge"><title>0&#45;&#45;1</title>
<path fill="none" stroke="black" d="M36,-215.831C36,-205 36,-191.288 36,-180.413"/>
</g>
<!-- 2 -->
<g id="node3" class="node"><title>2</title>
<ellipse fill="none" stroke="black" cx="36" cy="-90" rx="29.0158" ry="18"/>
<text text-anchor="middle" x="36" y="-86.1" font-family="Times New Roman,serif" font-size="14.00">4,5,6</text>
</g>
<!-- 1&#45;&#45;2 -->
<g id="edge4" class="edge"><title>1&#45;&#45;2</title>
<path fill="none" stroke="black" d="M36,-143.831C36,-133 36,-119.288 36,-108.413"/>
</g>
<!-- 3 -->
<g id="node4" class="node"><title>3</title>
<ellipse fill="none" stroke="black" cx="36" cy="-18" rx="29.0158" ry="18"/>
<text text-anchor="middle" x="36" y="-14.1" font-family="Times New Roman,serif" font-size="14.00">5,6,7</text>
</g>
<!-- 2&#45;&#45;3 -->
<g id="edge6" class="edge"><title>2&#45;&#45;3</title>
<path fill="none" stroke="black" d="M36,-71.8314C36,-61 36,-47.2876 36,-36.4133"/>
</g>
</g>
</svg>
